<?xml version="1.0" encoding="UTF-8" standalone="no"?>
<svg
   xmlns:dc="http://purl.org/dc/elements/1.1/"
   xmlns:cc="http://creativecommons.org/ns#"
   xmlns:rdf="http://www.w3.org/1999/02/22-rdf-syntax-ns#"
   xmlns:svg="http://www.w3.org/2000/svg"
   xmlns="http://www.w3.org/2000/svg"
   xmlns:sodipodi="http://sodipodi.sourceforge.net/DTD/sodipodi-0.dtd"
   xmlns:inkscape="http://www.inkscape.org/namespaces/inkscape"
   inkscape:version="1.0 (4035a4fb49, 2020-05-01)"
   sodipodi:docname="TVVR.svg"
   id="svg266"
   style="clip-rule:evenodd;fill-rule:evenodd;stroke-linejoin:round;stroke-miterlimit:2"
   xml:space="preserve"
   version="1.1"
   viewBox="0 0 4287.5737 2158.2615"
   height="2158.2615"
   width="4287.5737"><metadata
   id="metadata272"><rdf:RDF><cc:Work
       rdf:about=""><dc:format>image/svg+xml</dc:format><dc:type
         rdf:resource="http://purl.org/dc/dcmitype/StillImage" /><dc:title></dc:title></cc:Work></rdf:RDF></metadata><defs
   id="defs270"><inkscape:path-effect
     spray_tool_friendly="false"
     fixed_displacement="false"
     shift_nodes="true"
     handles="along"
     global_randomize="1;565678390"
     displace_y="0;1464676102"
     displace_x="0;2083694917"
     segments="2"
     max_segment_size="25.105"
     method="segments"
     lpeversion="1"
     is_visible="true"
     id="path-effect542"
     effect="roughen" /><inkscape:path-effect
     spray_tool_friendly="true"
     fixed_displacement="false"
     shift_nodes="true"
     handles="rand"
     global_randomize="1;1"
     displace_y="10;1"
     displace_x="10;1"
     segments="8"
     max_segment_size="2.105"
     method="size"
     lpeversion="1"
     is_visible="true"
     id="path-effect540"
     effect="roughen" /><inkscape:path-effect
     tgtlength_rdm="0.3;1"
     tgtlength="100"
     tgtscale="10"
     tgt_places_rdmness="1;1"
     nbtangents="5"
     tremble_frequency="1"
     tremble_size="5;1"
     parallel_offset="5;1"
     ends_tolerance="0.1;1"
     strokeoverlap_rdm="0.3;1"
     strokeoverlap="0.3"
     strokelength_rdm="0.3;1"
     strokelength="10"
     nbiter_approxstrokes="8"
     lpeversion="1"
     is_visible="true"
     id="path-effect538"
     effect="sketch" /><inkscape:path-effect
     back_thickness="0.25"
     front_thickness="1"
     stroke_width_bottom="1"
     stroke_width_top="1"
     fat_output="true"
     bottom_smth_variation="0;847198510"
     top_smth_variation="0;1"
     scale_tb="1"
     scale_tf="1"
     scale_bb="1"
     scale_bf="1"
     top_tgt_variation="0;1"
     bottom_tgt_variation="0;1"
     top_edge_variation="222.55;1"
     bottom_edge_variation="218.45;1"
     bender="3014.5516,5079.5617 , 5,0"
     do_bend="true"
     growth="3.7"
     dist_rdm="75;1176842480"
     direction="3014.5516,5074.5617 , 1069.5333,0"
     lpeversion="1"
     is_visible="true"
     id="path-effect536"
     effect="rough_hatches" /><inkscape:path-effect
     maxComplexity="1000"
     drawall="true"
     nbgenerations="1"
     similar_only="false"
     generator="m 875.485,6184.8358 h 1426.0444 m 1426.0445,0 h 1426.0444"
     ref_path="M 875.485,5079.5617 H 5153.6183"
     lpeversion="1"
     is_visible="true"
     id="path-effect534"
     effect="vonkoch" /><inkscape:path-effect
     live_update="true"
     perimetral="false"
     vertical_mirror="false"
     horizontal_mirror="false"
     lpeversion="1"
     is_visible="true"
     id="path-effect532"
     gridpoint32x33x34x35="2932.0749,5226.1504"
     gridpoint29x31="3960.3699,5226.1504"
     gridpoint28x30="1903.78,5226.1504"
     gridpoint25x27="5012.0309,5191.1012"
     gridpoint24x26="875.485,5226.1504"
     gridpoint22x23="2932.0749,5672.5514"
     gridpoint20x21="2932.0749,4779.7494"
     gridpoint19="3811.6687,5986.4761"
     gridpoint18="1903.78,5672.5514"
     gridpoint17="3960.3699,4779.7494"
     gridpoint16="1903.78,4779.7494"
     gridpoint15="5064.6047,5649.1853"
     gridpoint14="875.485,5672.5514"
     gridpoint13="4988.6648,4733.0171"
     gridpoint12="875.485,4779.7494"
     gridpoint10x11="2932.0749,6037.1709"
     gridpoint8x9="2960.2803,4258.4107"
     gridpoint7="3998.2538,6219.2607"
     gridpoint6="1921.3046,6043.0125"
     gridpoint5="3980.3141,4130.4841"
     gridpoint4="1901.3603,4208.8436"
     gridpoint3="5058.7632,6171.5262"
     gridpoint2="875.485,6118.9524"
     gridpoint1="5165.1563,4091.5978"
     gridpoint0="875.485,4333.3484"
     effect="lattice2" /><inkscape:path-effect
     effect="lattice2"
     gridpoint0="875.485,4333.3484"
     gridpoint1="5165.1563,4091.5978"
     gridpoint2="875.485,6118.9524"
     gridpoint3="5058.7632,6171.5262"
     gridpoint4="1901.3603,4208.8436"
     gridpoint5="3980.3141,4130.4841"
     gridpoint6="1921.3046,6043.0125"
     gridpoint7="3998.2538,6219.2607"
     gridpoint8x9="2960.2803,4258.4107"
     gridpoint10x11="2932.0749,6037.1709"
     gridpoint12="875.485,4779.7494"
     gridpoint13="4988.6648,4733.0171"
     gridpoint14="875.485,5672.5514"
     gridpoint15="5064.6047,5649.1853"
     gridpoint16="1903.78,4779.7494"
     gridpoint17="3960.3699,4779.7494"
     gridpoint18="1903.78,5672.5514"
     gridpoint19="3811.6687,5986.4761"
     gridpoint20x21="2932.0749,4779.7494"
     gridpoint22x23="2932.0749,5672.5514"
     gridpoint24x26="875.485,5226.1504"
     gridpoint25x27="5012.0309,5191.1012"
     gridpoint28x30="1903.78,5226.1504"
     gridpoint29x31="3960.3699,5226.1504"
     gridpoint32x33x34x35="2932.0749,5226.1504"
     id="path-effect492"
     is_visible="true"
     lpeversion="1"
     horizontal_mirror="false"
     vertical_mirror="false"
     perimetral="false"
     live_update="true" /><inkscape:path-effect
     live_update="true"
     perimetral="false"
     vertical_mirror="false"
     horizontal_mirror="false"
     lpeversion="1"
     is_visible="true"
     id="path-effect390"
     gridpoint32x33x34x35="2932.0749,5226.1504"
     gridpoint29x31="3960.3699,5226.1504"
     gridpoint28x30="1903.78,5226.1504"
     gridpoint25x27="5012.0309,5191.1012"
     gridpoint24x26="875.485,5226.1504"
     gridpoint22x23="2932.0749,5672.5514"
     gridpoint20x21="2932.0749,4779.7494"
     gridpoint19="3811.6687,5986.4761"
     gridpoint18="1903.78,5672.5514"
     gridpoint17="3960.3699,4779.7494"
     gridpoint16="1903.78,4779.7494"
     gridpoint15="5064.6047,5649.1853"
     gridpoint14="875.485,5672.5514"
     gridpoint13="4988.6648,4733.0171"
     gridpoint12="875.485,4779.7494"
     gridpoint10x11="2932.0749,6037.1709"
     gridpoint8x9="2960.2803,4258.4107"
     gridpoint7="3998.2538,6219.2607"
     gridpoint6="1921.3046,6043.0125"
     gridpoint5="3980.3141,4130.4841"
     gridpoint4="1901.3603,4208.8436"
     gridpoint3="5058.7632,6171.5262"
     gridpoint2="875.485,6118.9524"
     gridpoint1="5165.1563,4091.5978"
     gridpoint0="875.485,4333.3484"
     effect="lattice2" /><inkscape:path-effect
     overflow_perspective="false"
     vertical_mirror="false"
     horizontal_mirror="false"
     deform_type="perspective"
     lpeversion="1"
     is_visible="true"
     id="path-effect388"
     down_right_point="4988.6648,6118.9524"
     down_left_point="875.485,6118.9524"
     up_right_point="4988.6648,4333.3484"
     up_left_point="875.485,4333.3484"
     effect="perspective-envelope" /><inkscape:path-effect
     bendpath2-nodetypes="cc"
     bendpath1-nodetypes="cc"
     bendpath4="m 875.485,4333.3484 v 1785.604"
     bendpath3="M 875.485,6118.9524 H 4988.6648"
     bendpath2="m 4988.6648,4333.3484 753.5579,1405.9043"
     bendpath1="m 875.485,4333.3484 4113.1798,-99.3061"
     xx="true"
     yy="true"
     lpeversion="1"
     is_visible="true"
     id="path-effect386"
     effect="envelope" /><inkscape:path-effect
     overflow_perspective="false"
     vertical_mirror="false"
     horizontal_mirror="false"
     deform_type="perspective"
     lpeversion="1"
     is_visible="true"
     id="path-effect286"
     effect="perspective-envelope"
     up_left_point="875.485,4331.6867"
     up_right_point="4988.6648,4331.6867"
     down_left_point="875.485,6118.9524"
     down_right_point="4988.6648,6118.9524" /></defs><sodipodi:namedview
   inkscape:current-layer="svg266"
   inkscape:window-maximized="1"
   inkscape:window-y="-8"
   inkscape:window-x="-8"
   inkscape:cy="912.66615"
   inkscape:cx="3169.3071"
   inkscape:zoom="0.085593957"
   showgrid="false"
   id="namedview268"
   inkscape:window-height="1017"
   inkscape:window-width="1920"
   inkscape:pageshadow="2"
   inkscape:pageopacity="0"
   guidetolerance="10"
   gridtolerance="10"
   objecttolerance="10"
   borderopacity="1"
   bordercolor="#666666"
   pagecolor="#ffffff" />
    
    
    
    
<g
   id="g384-3-3"
   style="clip-rule:evenodd;fill-rule:evenodd;stroke-linejoin:round;stroke-miterlimit:2"
   transform="rotate(-1.8721499,-119025.28,29367.503)"><g
     transform="matrix(1968.4,0,0,1968.4,3616.69,5900.46)"
     id="g252-4-8"><path
       sodipodi:nodetypes="ccssccccccccsccsscscssscscssscccssscc"
       d="m 0.76434024,-0.01123433 c -0.0120805,-0.02396667 -0.0385958,-0.07542306 -0.0558169,-0.1066536 -0.0166312,-0.0301609 -0.0346753,-0.061922 -0.0514369,-0.0913243 -0.0334622,-0.0586974 -0.0611032,-0.10744517 -0.0611032,-0.10744517 0.0315471,-0.0277528 0.0763645,-0.0551401 0.11602505,-0.10238217 0.0194273,-0.0231411 0.0368933,-0.0503943 0.0493408,-0.0829943 0.0124956,-0.0327259 0.0197609,-0.0702759 0.0194416,-0.11515925 -3.4302e-4,-0.0482141 -0.0187774,-0.0848472 -0.0470655,-0.11447248 -0.0282683,-0.0296046 -0.0672004,-0.0528354 -0.10940622,-0.0706677 -0.0424924,-0.0179534 -0.088284,-0.0304505 -0.13161665,-0.0390002 -0.0435274,-0.008588 -0.0830996,-0.0129293 -0.11393328,-0.0154992 -0.0475486,-0.00396 -0.10186869,-0.008046 -0.16016323,-0.0113903 -0.05343,-0.003065 -0.0962585,-0.004601 -0.0962585,-0.004601 -0.004744,0.0677407 -0.0115591,0.16515101 -0.0175996,0.2632619 -0.0063688,0.10344354 -0.01180073,0.20594128 -0.01548546,0.30461227 -0.001803,0.0482823 -0.0030531,0.0920874 -0.0038458,0.13184597 -7.9124e-4,0.039686 -0.0010831,0.0731578 -0.0011006,0.10110609 -3.458e-5,0.05509673 9.1616e-4,0.08540026 9.1616e-4,0.08540026 0.04684245,0.0031035 0.10283977,0.0064813 0.1607136,0.0088693 0.0537366,0.0022174 0.0969163,0.002902 0.0969163,0.002902 3.5207e-4,-0.02294408 8.8089e-4,-0.05002749 0.001677,-0.08225078 7.9095e-4,-0.03203289 0.001737,-0.06473397 0.002757,-0.0969679 0.001004,-0.0317222 0.001999,-0.0604 0.002757,-0.0816173 7.519e-4,-0.0210702 0.001242,-0.0341345 0.001242,-0.0341345 0.009737,-3.694e-5 0.003823,3.0404e-4 -0.002412,4.9768e-4 -0.006699,2.0803e-4 -0.0100674,1.6047e-4 0.002412,-4.9768e-4 0.0131739,0.0392987 0.0284833,0.0840555 0.0458392,0.13304747 0.0174346,0.04921396 0.0341862,0.09494933 0.0504757,0.1383583 0.0157107,0.04186652 0.0297722,0.07830092 0.0393914,0.10309036 0.009721,0.025053 0.0154928,0.0397711 0.0154928,0.0397711 0.0786231,-0.04593426 0.19065008,-0.11131966 0.26184623,-0.15570487 z m -0.4097561,-0.6281027 c 0.0671642,-0.00346 0.11575192,0.005742 0.13773776,0.0159103 0.029797,0.0137808 0.0310473,0.0417524 0.0287051,0.0535829 -0.005149,0.0260098 -0.0275607,0.0457922 -0.0461754,0.0533368 -0.025433,0.0103081 -0.0446125,0.0128997 -0.11193474,0.0176714 z"
       style="fill:#231f20;fill-rule:nonzero"
       id="path250-9-0" /></g><g
     transform="matrix(1968.4,0,0,1968.4,2799.94,5906.1)"
     id="g256-2-2"><path
       d="m 0.53633288,-0.87588879 c -0.0266342,0.0447677 -0.0570852,0.0972337 -0.0920786,0.15951851 -0.034884,0.0620902 -0.0688128,0.12419832 -0.10155299,0.18507405 -0.0311908,0.0579949 -0.0607795,0.11392803 -0.0800104,0.15034133 -0.0199713,0.0378152 -0.0319627,0.0605942 -0.0319627,0.0605942 0.001453,-0.0352923 0.003393,-0.0759809 0.006037,-0.12277385 0.002634,-0.0466093 0.005576,-0.0923752 0.00864,-0.13661489 0.002981,-0.0430428 0.005888,-0.0818702 0.007975,-0.10923701 0.0021,-0.0275391 0.003421,-0.0442747 0.003421,-0.0442747 -0.0208947,0.0393227 -0.0444662,0.0843053 -0.0712227,0.13634091 -0.0266527,0.0518336 -0.0521528,0.10227491 -0.0766211,0.15109964 -0.02281979,0.0455353 -0.04572814,0.091656 -0.05954234,0.11946851 -0.01484915,0.0298962 -0.02375839,0.0478334 -0.02375839,0.0478334 3.668e-5,0.0516332 7.3559e-4,0.10919033 0.0028043,0.167381 9.641e-4,0.02711917 0.002041,0.04915716 0.0029706,0.06593397 9.0089e-4,0.01625826 0.0015572,0.02593425 0.0015572,0.02593425 0.0557568,0.0023806 0.11320963,0.0053704 0.18124298,0.00933011 0.0605222,0.00352253 0.10909994,0.00654113 0.10909994,0.00654113 0.0139941,-0.02597857 0.0294943,-0.05559918 0.0474363,-0.09072713 0.0179387,-0.03512165 0.0369538,-0.07307159 0.0577621,-0.11494969 0.0411399,-0.0827968 0.0867302,-0.1756359 0.1288294,-0.25963677 0.0441552,-0.0881032 0.0784821,-0.15478675 0.10792813,-0.2106977 0.0274343,-0.0520911 0.0442514,-0.0827872 0.0442514,-0.0827872 -0.0589186,-0.0393327 -0.11484144,-0.0766592 -0.17320613,-0.11369207 z"
       style="fill:#231f20;fill-rule:nonzero"
       id="path254-7-8"
       sodipodi:nodetypes="cccccccc" /></g><g
     transform="matrix(1968.4,0,0,1968.4,836.117,5906.1)"
     id="g264-0-7"><path
       d="m 0.63320741,-0.81104064 c -0.0541433,0.008818 -0.11267256,0.0189867 -0.18284514,0.031862 -0.0687003,0.0126052 -0.13645817,0.025576 -0.20166929,0.0378955 -0.068359,0.0129142 -0.11660265,0.021817 -0.16228294,0.0298814 C 0.04522589,-0.70413107 0.02,-0.7 0.02,-0.7 c 5.25e-6,0.0716853 0,0.215 0,0.215 0.03656608,-0.00543 0.07395463,-0.0111497 0.11832971,-0.0179985 0.0394048,-0.006082 0.0708901,-0.01095 0.0708901,-0.01095 1.28e-5,-0.00394 -3.7776e-4,0.15235161 -3.6497e-4,0.14841141 -3.251e-5,0.0181888 -1.9221e-4,0.1463168 -2.2472e-4,0.1645056 2.124e-5,-0.0186497 -1.9062e-4,0.15153168 -1.6938e-4,0.13288193 -5.305e-5,0.03376397 -9.763e-5,0.05444709 -9.763e-5,0.05444709 0.0428245,-0.0028445 0.0915107,-0.0058351 0.14362257,-0.0084497 0.0477355,-0.002395 0.0858114,-0.003787 0.0858114,-0.003787 -2.4484e-4,-0.04284893 -4.1609e-4,-0.09419722 -3.3449e-4,-0.15218913 8.24e-5,-0.0585556 4.105e-4,-0.11575254 9.5761e-4,-0.17236515 5.3833e-4,-0.0557039 0.001223,-0.10386589 0.001799,-0.14020325 5.6564e-4,-0.0356607 9.7782e-4,-0.057516 9.7782e-4,-0.057516 0.0341154,-0.004691 0.0727845,-0.009811 0.11447742,-0.0149115 0.0381339,-0.004665 0.0686199,-0.008029 0.0686199,-0.008029 0.002715,-0.0832321 0.005762,-0.15963754 0.008913,-0.23988744 z"
       style="fill:#231f20;fill-rule:nonzero"
       id="path262-2-0" /></g><path
     id="path258-2-6-2"
     style="clip-rule:evenodd;fill:#231f20;fill-rule:nonzero;stroke-width:1968.4;stroke-linejoin:round;stroke-miterlimit:2"
     d="m 3041.4372,3974.2876 c -61.7454,105.6956 -133.5357,230.7892 -214.7058,376.6609 -81.6673,146.765 -158.7576,289.2529 -233.7929,430.3718 -70.5699,132.7208 -138.0021,261.8442 -180.752,343.7868 -44.8391,85.947 -71.7461,137.62 -71.7461,137.62 2.2509,-86.743 5.4798,-185.8005 10.2138,-299.9146 4.7152,-113.6626 10.1631,-224.0119 15.873,-330.8626 5.3397,-99.9243 11.1369,-200.6284 14.6889,-262.2849 3.7983,-65.9324 6.0971,-105.8005 6.0971,-105.8005 -78.9702,10.7773 -165.5423,23.4965 -262.1417,38.9109 -87.4589,13.9559 -157.4517,26.0363 -157.4517,26.0363 -3.1233,119.354 -7.5937,286.0946 -10.9926,449.868 -3.6158,174.233 -5.9781,340.624 -6.7146,507.3986 -0.7271,164.6321 0.2819,299.2277 1.6629,402.8634 1.3318,99.9501 2.7608,159.0761 2.7608,159.0761 107.0376,-3.302 225.442,-5.4833 355.9267,-5.4348 118.5181,0.044 213.3199,2.018 213.3199,2.018 67.9392,-127.8571 137.8934,-266.5181 233.6526,-459.1272 97.9328,-196.981 183.0849,-369.5959 285.8319,-571.2802 98.8293,-193.994 179.2781,-346.4281 246.5783,-471.1526 63.4301,-117.5521 102.4151,-187.121 102.4151,-187.121 -116.5964,-66.3542 -231.9221,-126.2842 -350.7236,-181.6324 z" /></g></svg>
